<svg id="visual" viewBox="0 0 2331.8 1227.75" width="2331.8" height="1227.75" xmlns="http://www.w3.org/2000/svg" xmlns:xlink="http://www.w3.org/1999/xlink" version="1.1"><path d="M0 856L55.5 851.2C111 846.3 222 836.7 333 832.7C444 828.7 555 830.3 666 843C777 855.7 888 879.3 999 895.7C1110 912 1221 921 1332.2 906.8C1443.3 892.7 1554.7 855.3 1665.8 857.5C1777 859.7 1888 901.3 1999 918.7C2110 936 2221 929 2276.5 925.5L2332 922L2332 1229L2276.5 1229C2221 1229 2110 1229 1999 1229C1888 1229 1777 1229 1665.8 1229C1554.7 1229 1443.3 1229 1332.2 1229C1221 1229 1110 1229 999 1229C888 1229 777 1229 666 1229C555 1229 444 1229 333 1229C222 1229 111 1229 55.5 1229L0 1229Z" fill="#ffa69c"></path><path d="M0 1008L55.5 998.2C111 988.3 222 968.7 333 962.5C444 956.3 555 963.7 666 970.2C777 976.7 888 982.3 999 980.3C1110 978.3 1221 968.7 1332.2 971.7C1443.3 974.7 1554.7 990.3 1665.8 994.2C1777 998 1888 990 1999 984.3C2110 978.7 2221 975.3 2276.5 973.7L2332 972L2332 1229L2276.5 1229C2221 1229 2110 1229 1999 1229C1888 1229 1777 1229 1665.8 1229C1554.7 1229 1443.3 1229 1332.2 1229C1221 1229 1110 1229 999 1229C888 1229 777 1229 666 1229C555 1229 444 1229 333 1229C222 1229 111 1229 55.5 1229L0 1229Z" fill="#ff9187"></path><path d="M0 1047L55.5 1043C111 1039 222 1031 333 1027.2C444 1023.3 555 1023.7 666 1024C777 1024.3 888 1024.7 999 1029.3C1110 1034 1221 1043 1332.2 1037.7C1443.3 1032.3 1554.7 1012.7 1665.8 1010.8C1777 1009 1888 1025 1999 1024C2110 1023 2221 1005 2276.5 996L2332 987L2332 1229L2276.5 1229C2221 1229 2110 1229 1999 1229C1888 1229 1777 1229 1665.8 1229C1554.7 1229 1443.3 1229 1332.2 1229C1221 1229 1110 1229 999 1229C888 1229 777 1229 666 1229C555 1229 444 1229 333 1229C222 1229 111 1229 55.5 1229L0 1229Z" fill="#ff7b72"></path><path d="M0 1035L55.5 1049.7C111 1064.3 222 1093.7 333 1106C444 1118.3 555 1113.7 666 1111.8C777 1110 888 1111 999 1112.2C1110 1113.3 1221 1114.7 1332.2 1104.7C1443.3 1094.7 1554.7 1073.3 1665.8 1064.8C1777 1056.3 1888 1060.7 1999 1067.3C2110 1074 2221 1083 2276.5 1087.5L2332 1092L2332 1229L2276.5 1229C2221 1229 2110 1229 1999 1229C1888 1229 1777 1229 1665.8 1229C1554.7 1229 1443.3 1229 1332.2 1229C1221 1229 1110 1229 999 1229C888 1229 777 1229 666 1229C555 1229 444 1229 333 1229C222 1229 111 1229 55.5 1229L0 1229Z" fill="#f56b60"></path><path d="M0 1139L55.5 1138.3C111 1137.7 222 1136.3 333 1140.3C444 1144.3 555 1153.7 666 1160.2C777 1166.7 888 1170.3 999 1162.2C1110 1154 1221 1134 1332.2 1126.5C1443.3 1119 1554.7 1124 1665.8 1125.7C1777 1127.3 1888 1125.7 1999 1127.8C2110 1130 2221 1136 2276.5 1139L2332 1142L2332 1229L2276.5 1229C2221 1229 2110 1229 1999 1229C1888 1229 1777 1229 1665.8 1229C1554.7 1229 1443.3 1229 1332.2 1229C1221 1229 1110 1229 999 1229C888 1229 777 1229 666 1229C555 1229 444 1229 333 1229C222 1229 111 1229 55.5 1229L0 1229Z" fill="#ea5b4e"></path></svg>